<?xml version="1.0" encoding="UTF-8" standalone="no"?>
<svg
   xmlns:dc="http://purl.org/dc/elements/1.1/"
   xmlns:cc="http://creativecommons.org/ns#"
   xmlns:rdf="http://www.w3.org/1999/02/22-rdf-syntax-ns#"
   xmlns:svg="http://www.w3.org/2000/svg"
   xmlns="http://www.w3.org/2000/svg"
   xmlns:sodipodi="http://sodipodi.sourceforge.net/DTD/sodipodi-0.dtd"
   xmlns:inkscape="http://www.inkscape.org/namespaces/inkscape"
   id="Capa_1"
   enable-background="new 0 0 512 512"
   height="512"
   viewBox="0 0 512 512"
   width="512"
   version="1.1"
   sodipodi:docname="hot-air-balloon-3.svg"
   inkscape:version="1.0.1 (c497b03c, 2020-09-10)">
  <metadata
     id="metadata90">
    <rdf:RDF>
      <cc:Work
         rdf:about="">
        <dc:format>image/svg+xml</dc:format>
        <dc:type
           rdf:resource="http://purl.org/dc/dcmitype/StillImage" />
      </cc:Work>
    </rdf:RDF>
  </metadata>
  <defs
     id="defs88" />
  <sodipodi:namedview
     pagecolor="#ffffff"
     bordercolor="#666666"
     borderopacity="1"
     objecttolerance="10"
     gridtolerance="10"
     guidetolerance="10"
     inkscape:pageopacity="0"
     inkscape:pageshadow="2"
     inkscape:window-width="1920"
     inkscape:window-height="1035"
     id="namedview86"
     showgrid="false"
     inkscape:zoom="1.4355469"
     inkscape:cx="256"
     inkscape:cy="256"
     inkscape:window-x="0"
     inkscape:window-y="23"
     inkscape:window-maximized="0"
     inkscape:current-layer="Capa_1" />
  <g
     id="g83"
     transform="matrix(0.78125,0,0,0.78125,57.834694,54.334694)">
    <path
       d="m 181,360 h 30 v 62 h -30 z"
       fill="#2e5167"
       id="path59" />
    <path
       d="m 241,360 h 30 v 62 h -30 z"
       fill="#1e3442"
       id="path61" />
    <path
       d="M 458.5,165 H 391 c -6.541,0 -13.003,-1.062 -19.206,-3.158 C 371.75,161.724 339.229,74.884 339.183,74.761 349.914,56.403 369.769,45 391,45 c 27.906,0 51.425,19.15 58.102,45 h 9.398 c 20.678,0 37.5,16.822 37.5,37.5 0,20.678 -16.822,37.5 -37.5,37.5 z"
       fill="#9dcced"
       id="path63" />
    <path
       d="M 140.156,315 H 61 c -24.813,0 -45,-20.187 -45,-45 0,-24.813 20.187,-45 45,-45 h 31.995 c 4.929,6.271 -22.606,-28.76 47.161,60 z"
       fill="#c9e8f7"
       id="path65" />
    <path
       d="m 300,365 -74,10 H 142 V 359.06 C 142,332.435 130.677,306.372 110.934,287.554 77.494,255.681 59.122,212.693 59.201,166.508 59.276,123.048 76.11,81.861 106.604,50.533 137.108,19.195 177.828,1.271 221.263,0.065 222.805,0.023 224.343,0 225.876,0 c 48.459,0 156.926,74.783 156.925,166.799 0,46.083 -18.38,88.975 -51.753,120.773 -19.73,18.8 -31.047,34.856 -31.047,61.485 V 365 Z"
       fill="#dd5a5a"
       id="path67" />
    <path
       d="m 310,359.059 c 0,-26.629 11.316,-52.685 31.047,-71.485 C 374.42,255.774 392.8,212.883 392.8,166.8 392.801,74.825 318.017,0.014 226,0.004 V 375 h 84 z"
       fill="#c30057"
       id="path69" />
    <path
       d="m 436,390 h -90 v -30 h 90 c 8.272,0 15,-6.729 15,-15 0,-8.271 -6.728,-15 -15,-15 -8.272,0 -15,6.729 -15,15 h -30 c 0,-24.813 20.186,-45 45,-45 24.814,0 45,20.187 45,45 0,24.813 -20.186,45 -45,45 z"
       fill="#9dcced"
       id="path71" />
    <path
       d="m 31,390 h 75 v 30 H 31 Z"
       fill="#c9e8f7"
       id="path73" />
    <path
       d="M 246.333,502 226,512 H 195.667 C 171.037,512 151,491.962 151,467.333 V 407 h 75 l 65,10 v 40.333 C 291,481.962 270.963,502 246.333,502 Z"
       fill="#3d6c84"
       id="path75" />
    <path
       d="M 301,467.333 V 407 h -75 v 105 h 30.333 C 280.963,512 301,491.962 301,467.333 Z"
       fill="#2e5167"
       id="path77" />
    <path
       d="m 256.091,365 -30.096,10 H 185.91 v -15.94 c 0,-28.952 -4.375,-57.023 -12.003,-77.017 C 150.282,220.116 149.761,119.811 172.352,55.99 187.986,11.82 208.68,1.218 223.287,0.102 224.186,0.035 225.1,0 226,0 c 26.167,0 60.2,83.911 60.2,166.8 0,43.721 -6.433,84.655 -18.114,115.262 -7.623,19.976 -11.995,38.041 -11.995,66.997 z"
       fill="#f3d752"
       id="path79" />
    <path
       d="m 266.091,359.059 c 0,-28.956 4.372,-57.021 11.995,-76.997 C 289.768,251.455 296.2,210.52 296.2,166.8 296.2,84.004 272.139,0.193 226.154,0.005 H 226 V 375 h 40.091 z"
       fill="#e59a32"
       id="path81" />
  </g>
</svg>
